<svg xmlns="http://www.w3.org/2000/svg" width="1045" height="1003" viewBox="0 0 1045 1003">
<g>
<path d="M 1045.00,1003.00 L 0.00,1003.00 L 0.00,0.00 L 1045.00,0.00 M 350.00,443.00 L 299.00,443.00 L 299.00,512.00 L 350.00,512.00 L 350.00,760.00 L 442.25,759.96 L 457.71,759.95 L 467.43,759.93 L 472.01,759.91 L 480.99,759.88 L 485.22,759.86 L 493.49,759.82 L 497.37,759.79 L 504.96,759.73 L 508.51,759.70 L 515.45,759.63 L 518.68,759.59 L 525.00,759.50 L 527.94,759.45 L 533.67,759.35 L 536.33,759.29 L 541.50,759.18 L 543.88,759.11 L 548.53,758.98 L 550.66,758.90 L 554.81,758.75 L 556.70,758.67 L 560.38,758.50 L 562.06,758.41 L 565.30,758.22 L 566.77,758.12 L 569.61,757.91 L 570.88,757.80 L 573.34,757.57 L 574.44,757.45 L 576.56,757.20 L 577.50,757.07 L 580.54,756.65 L 583.02,756.31 L 584.38,756.13 L 590.02,755.39 L 592.50,755.08 L 600.41,753.70 L 602.94,753.12 L 604.02,752.82 L 606.06,752.24 L 606.79,751.97 L 610.98,750.58 L 612.16,750.26 L 612.61,750.16 L 613.42,750.00 L 613.64,750.00 L 614.57,749.87 L 615.35,749.67 L 615.81,749.52 L 617.77,748.79 L 618.86,748.29 L 621.07,747.21 L 622.11,746.61 L 624.12,745.40 L 624.88,744.81 L 627.29,743.53 L 629.05,743.00 L 629.73,743.00 L 630.67,742.86 L 631.52,742.64 L 632.03,742.47 L 634.35,741.64 L 635.79,741.03 L 638.86,739.70 L 640.56,738.91 L 644.07,737.24 L 645.89,736.33 L 649.54,734.46 L 651.32,733.51 L 654.82,731.61 L 656.41,730.69 L 659.46,728.90 L 660.70,728.09 L 661.90,727.31 L 662.41,726.95 L 663.37,726.25 L 663.75,725.94 L 665.63,724.48 L 667.44,723.12 L 668.53,722.31 L 670.82,720.62 L 672.06,719.72 L 674.57,717.89 L 675.82,717.00 L 679.34,714.39 L 681.41,712.79 L 682.24,712.10 L 683.74,710.83 L 684.21,710.37 L 684.62,709.95 L 684.75,709.80 L 684.94,709.53 L 684.94,709.46 L 685.36,708.75 L 685.99,708.04 L 686.44,707.61 L 687.43,706.68 L 688.03,706.18 L 689.28,705.15 L 689.96,704.63 L 694.28,700.93 L 695.65,699.62 L 696.24,699.01 L 697.33,697.84 L 697.71,697.36 L 699.17,695.61 L 700.39,694.18 L 701.08,693.40 L 703.94,690.17 L 705.25,688.76 L 707.09,686.71 L 708.17,685.46 L 708.60,684.93 L 709.38,683.94 L 709.63,683.59 L 710.00,683.01 L 710.00,682.91 L 710.47,681.96 L 710.84,681.44 L 711.10,681.11 L 711.67,680.40 L 712.03,679.96 L 712.81,679.03 L 713.28,678.48 L 714.29,677.32 L 714.89,676.64 L 716.15,675.21 L 716.88,674.40 L 718.40,672.69 L 719.27,671.73 L 721.42,668.80 L 721.99,667.78 L 722.21,667.32 L 722.58,666.43 L 722.67,666.08 L 723.16,664.72 L 723.70,663.58 L 724.05,662.93 L 725.62,660.24 L 726.50,659.00 L 729.18,655.04 L 729.99,653.77 L 730.32,653.22 L 730.92,652.20 L 731.11,651.83 L 731.85,650.41 L 732.47,649.20 L 732.83,648.52 L 734.31,645.66 L 735.00,644.33 L 737.05,640.71 L 737.65,639.78 L 737.90,639.46 L 738.34,638.90 L 738.47,638.80 L 738.97,638.12 L 738.97,637.64 L 738.79,637.46 L 738.89,636.53 L 739.29,635.31 L 739.63,634.47 L 740.41,632.66 L 740.90,631.59 L 741.96,629.38 L 742.57,628.20 L 744.29,624.68 L 745.30,622.44 L 745.70,621.45 L 746.43,619.59 L 746.65,618.89 L 747.00,617.64 L 747.00,617.33 L 747.19,615.87 L 747.48,614.45 L 747.70,613.59 L 748.72,609.78 L 749.38,607.78 L 750.40,604.48 L 751.08,602.07 L 751.41,600.87 L 752.03,598.49 L 752.30,597.40 L 752.78,595.32 L 752.95,594.50 L 754.20,589.09 L 754.68,587.31 L 754.90,586.53 L 755.35,585.05 L 755.54,584.50 L 756.12,582.59 L 756.51,581.03 L 756.71,580.12 L 757.12,578.21 L 757.32,577.13 L 757.74,574.92 L 757.94,573.71 L 758.77,568.61 L 759.17,565.77 L 759.96,559.92 L 760.33,556.82 L 761.73,544.10 L 762.23,537.90 L 762.68,531.79 L 762.84,528.95 L 763.10,523.42 L 763.14,521.00 L 763.18,516.67 L 763.18,513.54 L 763.17,511.88 L 763.07,504.98 L 762.97,501.29 L 762.46,486.10 L 762.08,478.87 L 761.69,471.78 L 761.48,468.60 L 761.26,465.48 L 761.15,464.04 L 760.92,461.25 L 760.81,460.00 L 760.58,457.60 L 760.47,456.58 L 760.25,454.64 L 760.13,453.86 L 759.91,452.45 L 759.80,451.96 L 759.59,451.14 L 759.48,450.97 L 759.20,450.03 L 758.97,448.87 L 758.83,448.09 L 758.55,446.40 L 758.41,445.42 L 758.13,443.40 L 757.99,442.32 L 757.46,438.81 L 757.00,436.29 L 756.74,435.03 L 756.20,432.56 L 755.93,431.45 L 755.37,429.32 L 755.11,428.50 L 753.49,423.12 L 752.37,419.16 L 751.79,416.97 L 750.62,412.44 L 750.00,409.95 L 748.75,404.81 L 748.09,402.00 L 746.75,396.96 L 745.70,393.69 L 745.08,392.04 L 743.76,388.71 L 742.98,386.97 L 741.33,383.42 L 740.36,381.50 L 739.18,378.86 L 738.57,377.22 L 738.47,376.73 L 737.67,374.68 L 736.76,372.98 L 736.25,372.23 L 735.38,370.81 L 734.72,369.64 L 734.38,368.98 L 733.00,366.24 L 732.48,365.00 L 731.44,362.85 L 730.53,361.20 L 730.02,360.33 L 727.82,356.81 L 726.78,355.41 L 724.11,351.37 L 723.49,350.24 L 723.30,349.80 L 723.00,349.02 L 723.00,348.81 L 722.49,347.12 L 721.73,345.74 L 721.25,345.15 L 720.37,344.07 L 719.66,343.20 L 719.28,342.72 L 717.69,340.76 L 717.00,339.91 L 714.43,336.88 L 712.51,334.72 L 711.75,333.92 L 709.81,331.65 L 709.36,331.02 L 709.22,330.78 L 709.00,330.36 L 709.00,330.25 L 708.77,329.80 L 708.40,329.29 L 708.12,328.94 L 707.50,328.20 L 707.11,327.75 L 706.27,326.81 L 705.79,326.28 L 703.68,324.00 L 702.46,322.72 L 699.91,320.07 L 698.58,318.72 L 695.90,316.02 L 694.62,314.76 L 692.11,312.31 L 691.02,311.28 L 689.97,310.30 L 689.50,309.88 L 688.62,309.08 L 688.25,308.77 L 687.56,308.19 L 687.31,308.01 L 686.87,307.70 L 686.75,307.66 L 685.51,306.81 L 685.00,306.00 L 685.00,305.60 L 684.34,304.36 L 683.37,303.64 L 682.75,303.45 L 681.67,302.98 L 680.83,302.50 L 680.39,302.20 L 678.61,300.86 L 677.89,300.14 L 676.39,298.76 L 675.03,297.60 L 674.24,296.96 L 670.83,294.25 L 669.14,293.02 L 666.76,291.24 L 665.36,290.15 L 664.80,289.69 L 663.80,288.84 L 663.48,288.54 L 663.00,288.05 L 663.00,287.97 L 662.45,287.48 L 661.58,286.95 L 660.94,286.60 L 659.55,285.86 L 658.72,285.44 L 656.96,284.59 L 656.00,284.14 L 653.28,282.82 L 651.69,281.99 L 651.06,281.63 L 649.91,280.95 L 649.55,280.69 L 649.00,280.25 L 649.00,280.15 L 648.70,279.75 L 648.24,279.41 L 647.90,279.22 L 646.28,278.42 L 645.25,278.05 L 643.50,277.33 L 642.20,276.72 L 641.53,276.38 L 638.84,274.94 L 637.84,274.27 L 634.86,272.49 L 633.99,272.05 L 633.64,271.90 L 633.02,271.65 L 632.84,271.61 L 628.39,270.33 L 627.01,269.74 L 626.43,269.44 L 625.36,268.82 L 625.00,268.52 L 624.10,267.96 L 623.26,267.55 L 622.77,267.34 L 620.60,266.52 L 619.50,266.23 L 617.47,265.61 L 615.82,265.05 L 614.91,264.73 L 611.15,263.31 L 609.50,262.61 L 604.21,260.79 L 602.51,260.37 L 601.78,260.23 L 600.40,260.03 L 599.91,260.02 L 598.13,259.89 L 596.70,259.70 L 595.93,259.56 L 592.76,258.90 L 591.41,258.48 L 588.99,257.82 L 587.07,257.35 L 586.03,257.13 L 581.79,256.27 L 580.00,256.01 L 576.65,255.51 L 573.87,255.09 L 572.32,254.85 L 565.89,253.85 L 563.00,253.39 L 559.19,252.90 L 557.70,252.76 L 556.85,252.69 L 555.09,252.56 L 554.09,252.50 L 552.00,252.39 L 550.81,252.33 L 548.31,252.23 L 546.89,252.19 L 543.94,252.09 L 542.26,252.05 L 538.77,251.97 L 536.80,251.94 L 532.70,251.86 L 530.41,251.83 L 525.64,251.77 L 522.99,251.74 L 517.49,251.68 L 514.44,251.65 L 508.14,251.60 L 504.67,251.57 L 497.49,251.52 L 493.56,251.50 L 485.45,251.45 L 481.02,251.43 L 471.91,251.38 L 466.95,251.36 L 461.93,251.33 L 459.31,251.32 L 454.01,251.30 L 451.25,251.29 L 350.00,250.85 M 519.69,320.12 L 523.49,320.14 L 525.29,320.16 L 528.82,320.19 L 530.47,320.22 L 533.69,320.27 L 535.18,320.30 L 538.07,320.37 L 539.37,320.41 L 541.89,320.49 L 543.00,320.53 L 545.11,320.63 L 546.01,320.68 L 547.69,320.80 L 548.36,320.86 L 549.58,320.98 L 550.00,321.05 L 552.62,321.46 L 554.63,321.78 L 555.69,321.94 L 557.81,322.26 L 558.82,322.42 L 560.80,322.72 L 561.64,322.84 L 563.96,323.30 L 565.67,323.74 L 566.61,324.03 L 570.56,325.35 L 572.82,326.26 L 577.50,328.24 L 580.07,329.46 L 585.34,332.03 L 588.15,333.53 L 591.85,335.27 L 592.90,335.68 L 593.31,335.80 L 594.04,336.00 L 594.24,336.00 L 595.80,336.59 L 597.00,337.45 L 597.50,338.00 L 599.05,339.41 L 599.97,340.00 L 600.22,340.00 L 600.90,340.21 L 601.56,340.54 L 601.97,340.79 L 603.80,341.97 L 604.87,342.77 L 607.09,344.45 L 608.15,345.35 L 610.22,347.14 L 611.01,347.95 L 612.26,349.14 L 613.25,350.03 L 613.79,350.49 L 615.99,352.31 L 616.93,353.00 L 618.23,354.02 L 619.21,354.86 L 619.77,355.36 L 620.93,356.43 L 621.58,357.06 L 622.95,358.39 L 623.72,359.16 L 625.32,360.78 L 626.23,361.72 L 628.10,363.66 L 629.14,364.76 L 631.31,367.05 L 632.51,368.34 L 635.00,371.01 L 636.38,372.50 L 638.17,374.48 L 639.22,375.69 L 639.64,376.20 L 640.40,377.13 L 640.64,377.45 L 641.00,377.99 L 641.00,378.07 L 641.32,378.71 L 641.81,379.51 L 642.17,380.05 L 642.97,381.20 L 643.45,381.87 L 644.45,383.26 L 645.00,384.00 L 647.82,388.31 L 648.48,389.54 L 648.68,390.03 L 649.00,390.90 L 649.00,391.15 L 649.24,392.21 L 649.61,393.21 L 649.88,393.80 L 651.17,396.36 L 652.00,397.66 L 654.12,401.41 L 654.61,402.47 L 654.76,402.87 L 655.00,403.60 L 655.00,403.79 L 655.41,405.38 L 656.03,406.89 L 656.46,407.77 L 657.40,409.58 L 657.93,410.47 L 659.01,412.24 L 659.55,413.00 L 660.07,414.02 L 660.48,415.04 L 660.69,415.67 L 661.56,418.49 L 661.91,420.00 L 662.25,421.36 L 662.54,422.47 L 662.71,423.12 L 663.49,425.92 L 663.96,427.55 L 666.02,434.54 L 667.10,437.97 L 668.61,443.02 L 669.50,446.18 L 669.85,447.56 L 670.49,450.13 L 670.69,451.09 L 670.87,451.98 L 670.92,452.32 L 671.00,452.92 L 671.00,453.11 L 671.11,454.73 L 671.29,456.25 L 671.42,457.16 L 672.03,461.12 L 672.43,463.14 L 672.92,466.45 L 673.22,469.18 L 673.34,470.77 L 673.59,474.12 L 673.70,475.98 L 673.89,479.83 L 673.97,481.92 L 674.13,486.19 L 674.18,488.45 L 674.29,493.04 L 674.32,495.42 L 674.41,505.14 L 674.39,510.10 L 674.30,520.04 L 674.19,524.82 L 674.07,529.55 L 673.99,531.82 L 673.82,536.29 L 673.72,538.40 L 673.51,542.51 L 673.39,544.40 L 673.13,548.05 L 672.99,549.68 L 672.69,552.78 L 672.53,554.09 L 672.19,556.55 L 672.00,557.50 L 670.63,563.87 L 669.55,568.39 L 668.97,570.61 L 667.81,574.98 L 667.24,576.92 L 666.68,578.81 L 666.41,579.66 L 665.88,581.30 L 665.63,582.00 L 664.89,584.22 L 664.32,585.99 L 664.03,586.94 L 662.85,590.85 L 662.40,592.50 L 661.70,594.67 L 661.05,596.43 L 660.64,597.44 L 659.79,599.53 L 659.30,600.68 L 658.27,603.04 L 657.70,604.29 L 655.32,609.43 L 654.02,612.07 L 651.37,617.33 L 650.05,619.79 L 649.22,621.82 L 648.69,623.54 L 648.53,624.31 L 647.98,625.74 L 647.36,626.91 L 646.94,627.56 L 645.06,630.24 L 643.97,631.42 L 641.17,634.94 L 640.51,635.97 L 640.31,636.39 L 640.00,637.14 L 640.00,637.36 L 639.56,638.52 L 638.91,639.00 L 638.50,639.00 L 637.44,639.38 L 637.00,639.93 L 637.00,640.28 L 636.63,641.18 L 636.04,642.11 L 635.60,642.69 L 634.66,643.92 L 634.09,644.60 L 632.90,645.98 L 632.25,646.69 L 629.99,649.12 L 628.26,650.99 L 627.36,651.96 L 625.54,653.92 L 624.67,654.86 L 622.98,656.68 L 622.26,657.45 L 618.08,661.62 L 614.98,664.45 L 613.51,665.69 L 612.07,666.89 L 611.41,667.41 L 610.14,668.39 L 609.61,668.78 L 608.60,669.47 L 608.23,669.68 L 607.57,670.00 L 607.40,670.00 L 606.86,670.27 L 606.23,670.70 L 605.81,671.01 L 603.91,672.49 L 602.80,673.44 L 600.80,674.87 L 598.97,676.00 L 597.88,676.62 L 593.10,679.19 L 590.53,680.44 L 587.97,681.65 L 586.75,682.20 L 584.38,683.23 L 583.34,683.65 L 581.37,684.40 L 580.61,684.64 L 579.25,685.01 L 578.88,685.01 L 577.60,685.27 L 576.10,685.67 L 575.12,685.96 L 573.00,686.59 L 571.80,686.97 L 569.31,687.78 L 558.50,691.41 L 436.00,692.09 L 436.00,512.00 L 561.00,512.00 L 561.00,443.00 L 436.00,443.00 L 436.00,321.32 L 465.25,320.66 L 479.80,320.38 L 489.35,320.25 L 493.97,320.20 L 503.08,320.13 L 507.39,320.11 L 515.82,320.10 Z" fill="rgb(0,0,0)"/>
<path d="M 350.00,636.00 L 350.00,512.00 L 324.50,512.00 L 299.00,512.00 L 299.00,477.50 L 299.00,443.00 L 324.50,443.00 L 350.00,443.00 L 350.00,346.93 L 350.00,250.85 L 451.25,251.29 L 454.01,251.30 L 459.31,251.32 L 461.93,251.33 L 466.95,251.36 L 471.91,251.38 L 481.02,251.43 L 485.45,251.45 L 493.56,251.50 L 497.49,251.52 L 504.67,251.57 L 508.14,251.60 L 514.44,251.65 L 517.49,251.68 L 522.99,251.74 L 525.64,251.77 L 530.41,251.83 L 532.70,251.86 L 536.80,251.94 L 538.77,251.97 L 542.26,252.05 L 543.94,252.09 L 546.89,252.19 L 548.31,252.23 L 550.81,252.33 L 552.00,252.39 L 554.09,252.50 L 555.09,252.56 L 556.85,252.69 L 557.70,252.76 L 559.19,252.90 L 563.00,253.39 L 565.89,253.85 L 572.32,254.85 L 573.87,255.09 L 576.65,255.51 L 580.00,256.01 L 581.79,256.27 L 586.03,257.13 L 587.07,257.35 L 588.99,257.82 L 591.41,258.48 L 592.76,258.90 L 595.93,259.56 L 596.70,259.70 L 598.13,259.89 L 599.91,260.02 L 600.40,260.03 L 601.78,260.23 L 602.51,260.37 L 604.21,260.79 L 609.50,262.61 L 611.15,263.31 L 614.91,264.73 L 615.82,265.05 L 617.47,265.61 L 619.50,266.23 L 620.60,266.52 L 622.77,267.34 L 623.26,267.55 L 624.10,267.96 L 625.00,268.52 L 625.36,268.82 L 626.43,269.44 L 627.01,269.74 L 628.39,270.33 L 632.84,271.61 L 633.02,271.65 L 633.64,271.90 L 633.99,272.05 L 634.86,272.49 L 637.84,274.27 L 638.84,274.94 L 641.53,276.38 L 642.20,276.72 L 643.50,277.33 L 645.25,278.05 L 646.28,278.42 L 647.90,279.22 L 648.24,279.41 L 648.70,279.75 L 649.00,280.15 L 649.00,280.25 L 649.55,280.69 L 649.91,280.95 L 651.06,281.63 L 651.69,281.99 L 653.28,282.82 L 656.00,284.14 L 656.96,284.59 L 658.72,285.44 L 659.55,285.86 L 660.94,286.60 L 661.58,286.95 L 662.45,287.48 L 663.00,287.97 L 663.00,288.05 L 663.48,288.54 L 663.80,288.84 L 664.80,289.69 L 665.36,290.15 L 666.76,291.24 L 669.14,293.02 L 670.83,294.25 L 674.24,296.96 L 675.03,297.60 L 676.39,298.76 L 677.89,300.14 L 678.61,300.86 L 680.39,302.20 L 680.83,302.50 L 681.67,302.98 L 682.75,303.45 L 683.37,303.64 L 684.34,304.36 L 685.00,305.60 L 685.00,306.00 L 685.51,306.81 L 686.75,307.66 L 686.87,307.70 L 687.31,308.01 L 687.56,308.19 L 688.25,308.77 L 688.62,309.08 L 689.50,309.88 L 689.97,310.30 L 691.02,311.28 L 692.11,312.31 L 694.62,314.76 L 695.90,316.02 L 698.58,318.72 L 699.91,320.07 L 702.46,322.72 L 703.68,324.00 L 705.79,326.28 L 706.27,326.81 L 707.11,327.75 L 707.50,328.20 L 708.12,328.94 L 708.40,329.29 L 708.77,329.80 L 709.00,330.25 L 709.00,330.36 L 709.22,330.78 L 709.36,331.02 L 709.81,331.65 L 711.75,333.92 L 712.51,334.72 L 714.43,336.88 L 717.00,339.91 L 717.69,340.76 L 719.28,342.72 L 719.66,343.20 L 720.37,344.07 L 721.25,345.15 L 721.73,345.74 L 722.49,347.12 L 723.00,348.81 L 723.00,349.02 L 723.30,349.80 L 723.49,350.24 L 724.11,351.37 L 726.78,355.41 L 727.82,356.81 L 730.02,360.33 L 730.53,361.20 L 731.44,362.85 L 732.48,365.00 L 733.00,366.24 L 734.38,368.98 L 734.72,369.64 L 735.38,370.81 L 736.25,372.23 L 736.76,372.98 L 737.67,374.68 L 738.47,376.73 L 738.57,377.22 L 739.18,378.86 L 740.36,381.50 L 741.33,383.42 L 742.98,386.97 L 743.76,388.71 L 745.08,392.04 L 745.70,393.69 L 746.75,396.96 L 748.09,402.00 L 748.75,404.81 L 750.00,409.95 L 750.62,412.44 L 751.79,416.97 L 752.37,419.16 L 753.49,423.12 L 755.11,428.50 L 755.37,429.32 L 755.93,431.45 L 756.20,432.56 L 756.74,435.03 L 757.00,436.29 L 757.46,438.81 L 757.99,442.32 L 758.13,443.40 L 758.41,445.42 L 758.55,446.40 L 758.83,448.09 L 758.97,448.87 L 759.20,450.03 L 759.48,450.97 L 759.59,451.14 L 759.80,451.96 L 759.91,452.45 L 760.13,453.86 L 760.25,454.64 L 760.47,456.58 L 760.58,457.60 L 760.81,460.00 L 760.92,461.25 L 761.15,464.04 L 761.26,465.48 L 761.48,468.60 L 761.69,471.78 L 762.08,478.87 L 762.46,486.10 L 762.97,501.29 L 763.07,504.98 L 763.17,511.88 L 763.18,513.54 L 763.18,516.67 L 763.14,521.00 L 763.10,523.42 L 762.84,528.95 L 762.68,531.79 L 762.23,537.90 L 761.73,544.10 L 760.33,556.82 L 759.96,559.92 L 759.17,565.77 L 758.77,568.61 L 757.94,573.71 L 757.74,574.92 L 757.32,577.13 L 757.12,578.21 L 756.71,580.12 L 756.51,581.03 L 756.12,582.59 L 755.54,584.50 L 755.35,585.05 L 754.90,586.53 L 754.68,587.31 L 754.20,589.09 L 752.95,594.50 L 752.78,595.32 L 752.30,597.40 L 752.03,598.49 L 751.41,600.87 L 751.08,602.07 L 750.40,604.48 L 749.38,607.78 L 748.72,609.78 L 747.70,613.59 L 747.48,614.45 L 747.19,615.87 L 747.00,617.33 L 747.00,617.64 L 746.65,618.89 L 746.43,619.59 L 745.70,621.45 L 745.30,622.44 L 744.29,624.68 L 742.57,628.20 L 741.96,629.38 L 740.90,631.59 L 740.41,632.66 L 739.63,634.47 L 739.29,635.31 L 738.89,636.53 L 738.79,637.46 L 738.97,637.64 L 738.97,638.12 L 738.47,638.80 L 738.34,638.90 L 737.90,639.46 L 737.65,639.78 L 737.05,640.71 L 735.00,644.33 L 734.31,645.66 L 732.83,648.52 L 732.47,649.20 L 731.85,650.41 L 731.11,651.83 L 730.92,652.20 L 730.32,653.22 L 729.99,653.77 L 729.18,655.04 L 726.50,659.00 L 725.62,660.24 L 724.05,662.93 L 723.70,663.58 L 723.16,664.72 L 722.67,666.08 L 722.58,666.43 L 722.21,667.32 L 721.99,667.78 L 721.42,668.80 L 719.27,671.73 L 718.40,672.69 L 716.88,674.40 L 716.15,675.21 L 714.89,676.64 L 714.29,677.32 L 713.28,678.48 L 712.81,679.03 L 712.03,679.96 L 711.67,680.40 L 711.10,681.11 L 710.84,681.44 L 710.47,681.96 L 710.00,682.91 L 710.00,683.01 L 709.63,683.59 L 709.38,683.94 L 708.60,684.93 L 708.17,685.46 L 707.09,686.71 L 705.25,688.76 L 703.94,690.17 L 701.08,693.40 L 700.39,694.18 L 699.17,695.61 L 697.71,697.36 L 697.33,697.84 L 696.24,699.01 L 695.65,699.62 L 694.28,700.93 L 689.96,704.63 L 689.28,705.15 L 688.03,706.18 L 687.43,706.68 L 686.44,707.61 L 685.99,708.04 L 685.36,708.75 L 684.94,709.46 L 684.94,709.53 L 684.75,709.80 L 684.62,709.95 L 684.21,710.37 L 683.74,710.83 L 682.24,712.10 L 681.41,712.79 L 679.34,714.39 L 675.82,717.00 L 674.57,717.89 L 672.06,719.72 L 670.82,720.62 L 668.53,722.31 L 667.44,723.12 L 665.63,724.48 L 663.75,725.94 L 663.37,726.25 L 662.41,726.95 L 661.90,727.31 L 660.70,728.09 L 659.46,728.90 L 656.41,730.69 L 654.82,731.61 L 651.32,733.51 L 649.54,734.46 L 645.89,736.33 L 644.07,737.24 L 640.56,738.91 L 638.86,739.70 L 635.79,741.03 L 634.35,741.64 L 632.03,742.47 L 631.52,742.64 L 630.67,742.86 L 629.73,743.00 L 629.05,743.00 L 627.29,743.53 L 624.88,744.81 L 624.12,745.40 L 622.11,746.61 L 621.07,747.21 L 618.86,748.29 L 617.77,748.79 L 615.81,749.52 L 615.35,749.67 L 614.57,749.87 L 613.64,750.00 L 613.42,750.00 L 612.61,750.16 L 612.16,750.26 L 610.98,750.58 L 606.79,751.97 L 606.06,752.24 L 604.02,752.82 L 602.94,753.12 L 600.41,753.70 L 592.50,755.08 L 590.02,755.39 L 584.38,756.13 L 583.02,756.31 L 580.54,756.65 L 577.50,757.07 L 576.56,757.20 L 574.44,757.45 L 573.34,757.57 L 570.88,757.80 L 569.61,757.91 L 566.77,758.12 L 565.30,758.22 L 562.06,758.41 L 560.38,758.50 L 556.70,758.67 L 554.81,758.75 L 550.66,758.90 L 548.53,758.98 L 543.88,759.11 L 541.50,759.18 L 536.33,759.29 L 533.67,759.35 L 527.94,759.45 L 525.00,759.50 L 518.68,759.59 L 515.45,759.63 L 508.51,759.70 L 504.96,759.73 L 497.37,759.79 L 493.49,759.82 L 485.22,759.86 L 480.99,759.88 L 472.01,759.91 L 467.43,759.93 L 457.71,759.95 L 442.25,759.96 L 350.00,760.00 L 350.00,636.00 M 568.00,688.21 L 569.31,687.78 L 571.80,686.97 L 573.00,686.59 L 575.12,685.96 L 576.10,685.67 L 577.60,685.27 L 578.88,685.01 L 579.25,685.01 L 580.61,684.64 L 581.37,684.40 L 583.34,683.65 L 584.38,683.23 L 586.75,682.20 L 587.97,681.65 L 590.53,680.44 L 593.10,679.19 L 597.88,676.62 L 598.97,676.00 L 600.80,674.87 L 602.80,673.44 L 603.91,672.49 L 605.81,671.01 L 606.23,670.70 L 606.86,670.27 L 607.40,670.00 L 607.57,670.00 L 608.23,669.68 L 608.60,669.47 L 609.61,668.78 L 610.14,668.39 L 611.41,667.41 L 612.07,666.89 L 613.51,665.69 L 614.98,664.45 L 618.08,661.62 L 622.26,657.45 L 622.98,656.68 L 624.67,654.86 L 625.54,653.92 L 627.36,651.96 L 628.26,650.99 L 629.99,649.12 L 632.25,646.69 L 632.90,645.98 L 634.09,644.60 L 634.66,643.92 L 635.60,642.69 L 636.04,642.11 L 636.63,641.18 L 637.00,640.28 L 637.00,639.93 L 637.44,639.38 L 638.50,639.00 L 638.91,639.00 L 639.56,638.52 L 640.00,637.36 L 640.00,637.14 L 640.31,636.39 L 640.51,635.97 L 641.17,634.94 L 643.97,631.42 L 645.06,630.24 L 646.94,627.56 L 647.36,626.91 L 647.98,625.74 L 648.53,624.31 L 648.69,623.54 L 649.22,621.82 L 650.05,619.79 L 651.37,617.33 L 654.02,612.07 L 655.32,609.43 L 657.70,604.29 L 658.27,603.04 L 659.30,600.68 L 659.79,599.53 L 660.64,597.44 L 661.05,596.43 L 661.70,594.67 L 662.40,592.50 L 662.85,590.85 L 664.03,586.94 L 664.32,585.99 L 664.89,584.22 L 665.63,582.00 L 665.88,581.30 L 666.41,579.66 L 666.68,578.81 L 667.24,576.92 L 667.81,574.98 L 668.97,570.61 L 669.55,568.39 L 670.63,563.87 L 672.00,557.50 L 672.19,556.55 L 672.53,554.09 L 672.69,552.78 L 672.99,549.68 L 673.13,548.05 L 673.39,544.40 L 673.51,542.51 L 673.72,538.40 L 673.82,536.29 L 673.99,531.82 L 674.07,529.55 L 674.19,524.82 L 674.30,520.04 L 674.39,510.10 L 674.41,505.14 L 674.32,495.42 L 674.29,493.04 L 674.18,488.45 L 674.13,486.19 L 673.97,481.92 L 673.89,479.83 L 673.70,475.98 L 673.59,474.12 L 673.34,470.77 L 673.22,469.18 L 672.92,466.45 L 672.43,463.14 L 672.03,461.12 L 671.42,457.16 L 671.29,456.25 L 671.11,454.73 L 671.00,453.11 L 671.00,452.92 L 670.92,452.32 L 670.87,451.98 L 670.69,451.09 L 670.49,450.13 L 669.85,447.56 L 669.50,446.18 L 668.61,443.02 L 667.10,437.97 L 666.02,434.54 L 663.96,427.55 L 663.49,425.92 L 662.71,423.12 L 662.54,422.47 L 662.25,421.36 L 661.91,420.00 L 661.56,418.49 L 660.69,415.67 L 660.48,415.04 L 660.07,414.02 L 659.55,413.00 L 659.01,412.24 L 657.93,410.47 L 657.40,409.58 L 656.46,407.77 L 656.03,406.89 L 655.41,405.38 L 655.00,403.79 L 655.00,403.60 L 654.76,402.87 L 654.61,402.47 L 654.12,401.41 L 652.00,397.66 L 651.17,396.36 L 649.88,393.80 L 649.61,393.21 L 649.24,392.21 L 649.00,391.15 L 649.00,390.90 L 648.68,390.03 L 648.48,389.54 L 647.82,388.31 L 645.00,384.00 L 644.45,383.26 L 643.45,381.87 L 642.97,381.20 L 642.18,380.05 L 641.81,379.51 L 641.32,378.71 L 641.00,378.07 L 641.00,377.99 L 640.64,377.45 L 640.40,377.13 L 639.64,376.20 L 639.22,375.69 L 638.17,374.48 L 636.38,372.50 L 635.00,371.01 L 632.51,368.34 L 631.31,367.05 L 629.14,364.76 L 628.10,363.66 L 626.23,361.72 L 625.32,360.78 L 623.72,359.16 L 622.95,358.39 L 621.58,357.06 L 620.93,356.43 L 619.77,355.36 L 619.21,354.86 L 618.23,354.02 L 616.93,353.00 L 615.99,352.31 L 613.79,350.49 L 613.25,350.03 L 612.26,349.14 L 611.01,347.95 L 610.22,347.14 L 608.15,345.35 L 607.09,344.45 L 604.87,342.77 L 603.80,341.97 L 601.97,340.79 L 601.56,340.54 L 600.90,340.21 L 600.22,340.00 L 599.97,340.00 L 599.05,339.41 L 597.50,338.00 L 597.00,337.45 L 595.80,336.59 L 594.24,336.00 L 594.04,336.00 L 593.31,335.80 L 592.90,335.68 L 591.85,335.27 L 588.15,333.53 L 585.34,332.03 L 580.07,329.46 L 577.50,328.24 L 572.82,326.26 L 570.56,325.35 L 566.61,324.03 L 565.67,323.74 L 563.96,323.30 L 561.64,322.84 L 560.80,322.72 L 558.82,322.42 L 557.81,322.26 L 555.69,321.94 L 554.63,321.78 L 552.62,321.46 L 550.00,321.05 L 549.58,320.98 L 548.36,320.86 L 547.69,320.80 L 546.01,320.68 L 545.11,320.63 L 543.00,320.53 L 541.89,320.49 L 539.37,320.41 L 538.07,320.37 L 535.18,320.30 L 533.69,320.27 L 530.47,320.22 L 528.82,320.19 L 525.29,320.16 L 523.49,320.14 L 519.69,320.12 L 515.82,320.10 L 507.39,320.11 L 503.08,320.13 L 493.97,320.20 L 489.35,320.25 L 479.80,320.38 L 465.25,320.66 L 436.00,321.32 L 436.00,382.16 L 436.00,443.00 L 498.50,443.00 L 561.00,443.00 L 561.00,477.50 L 561.00,512.00 L 498.50,512.00 L 436.00,512.00 L 436.00,602.04 L 436.00,692.09 L 497.25,691.75 L 558.50,691.41 L 568.00,688.21 Z" fill="rgb(254,254,254)"/>
</g>
</svg>